<svg width="90" height="75" viewBox="0 0 90 75" fill="none" xmlns="http://www.w3.org/2000/svg">
<path fill-rule="evenodd" clip-rule="evenodd" d="M53.0833 17.0813C52.0004 17.0813 50.9618 17.5115 50.196 18.2773C49.4302 19.0431 49 20.0817 49 21.1646V53.8313C49 54.9143 49.4302 55.9529 50.196 56.7187C50.9618 57.4844 52.0004 57.9146 53.0833 57.9146H69.4167C70.4996 57.9146 71.5382 57.4844 72.304 56.7187C73.0698 55.9529 73.5 54.9143 73.5 53.8313V21.1646C73.5 20.0817 73.0698 19.0431 72.304 18.2773C71.5382 17.5115 70.4996 17.0813 69.4167 17.0813H53.0833ZM65.3333 25.248H57.1667V49.748H65.3333V25.248Z" fill="black"/>
<path d="M20.4168 17.0813C19.3339 17.0813 18.2953 17.5115 17.5295 18.2773C16.7637 19.0431 16.3335 20.0817 16.3335 21.1646C16.3335 22.2476 16.7637 23.2862 17.5295 24.052C18.2953 24.8178 19.3339 25.248 20.4168 25.248H36.7502C37.8331 25.248 38.8717 24.8178 39.6375 24.052C40.4033 23.2862 40.8335 22.2476 40.8335 21.1646C40.8335 20.0817 40.4033 19.0431 39.6375 18.2773C38.8717 17.5115 37.8331 17.0813 36.7502 17.0813H20.4168Z" fill="black"/>
<path d="M20.4168 33.4146C19.3339 33.4146 18.2953 33.8448 17.5295 34.6106C16.7637 35.3764 16.3335 36.415 16.3335 37.4979C16.3335 38.5809 16.7637 39.6195 17.5295 40.3853C18.2953 41.1511 19.3339 41.5813 20.4168 41.5813H36.7502C37.8331 41.5813 38.8717 41.1511 39.6375 40.3853C40.4033 39.6195 40.8335 38.5809 40.8335 37.4979C40.8335 36.415 40.4033 35.3764 39.6375 34.6106C38.8717 33.8448 37.8331 33.4146 36.7502 33.4146H20.4168Z" fill="black"/>
<path d="M16.3335 53.8313C16.3335 52.7483 16.7637 51.7097 17.5295 50.9439C18.2953 50.1782 19.3339 49.748 20.4168 49.748H36.7502C37.8331 49.748 38.8717 50.1782 39.6375 50.9439C40.4033 51.7097 40.8335 52.7483 40.8335 53.8313C40.8335 54.9143 40.4033 55.9529 39.6375 56.7186C38.8717 57.4844 37.8331 57.9146 36.7502 57.9146H20.4168C19.3339 57.9146 18.2953 57.4844 17.5295 56.7186C16.7637 55.9529 16.3335 54.9143 16.3335 53.8313Z" fill="black"/>
<path fill-rule="evenodd" clip-rule="evenodd" d="M12.25 0.747955C9.0011 0.747955 5.88526 2.03858 3.58794 4.3359C1.29062 6.63322 0 9.74905 0 12.998V61.998C0 65.2469 1.29062 68.3627 3.58794 70.66C5.88526 72.9573 9.0011 74.248 12.25 74.248H77.5833C80.8322 74.248 83.9481 72.9573 86.2454 70.66C88.5427 68.3627 89.8333 65.2469 89.8333 61.998V12.998C89.8333 9.74905 88.5427 6.63322 86.2454 4.3359C83.9481 2.03858 80.8322 0.747955 77.5833 0.747955H12.25ZM77.5833 8.91462H12.25C11.167 8.91462 10.1284 9.34483 9.36265 10.1106C8.59687 10.8764 8.16667 11.915 8.16667 12.998V61.998C8.16667 63.0809 8.59687 64.1195 9.36265 64.8853C10.1284 65.6511 11.167 66.0813 12.25 66.0813H77.5833C78.6663 66.0813 79.7049 65.6511 80.4707 64.8853C81.2365 64.1195 81.6667 63.0809 81.6667 61.998V12.998C81.6667 11.915 81.2365 10.8764 80.4707 10.1106C79.7049 9.34483 78.6663 8.91462 77.5833 8.91462Z" fill="black"/>
</svg>
