<svg width="86" height="79" viewBox="0 0 86 79" fill="none" xmlns="http://www.w3.org/2000/svg">
<path d="M43.0027 0.00253107C19.2464 0.00253107 0 18.1429 0 40.5001C0 58.4026 12.3203 73.5765 29.395 78.9298C31.5532 79.312 32.3326 78.0591 32.3326 76.9758C32.3326 76.014 32.3085 73.4702 32.2923 70.0937C20.3241 72.5337 17.8031 64.6493 17.8031 64.6493C15.8438 59.982 13.0164 58.7291 13.0164 58.7291C9.12463 56.2258 13.3255 56.279 13.3255 56.279C17.6365 56.5549 19.9049 60.4426 19.9049 60.4426C23.7402 66.6388 29.9675 64.8468 32.4321 63.8039C32.8084 61.1944 33.9291 59.3998 35.1493 58.4C25.6027 57.3851 15.5643 53.9048 15.5643 38.3866C15.5643 33.9547 17.2306 30.3453 19.9855 27.5105C19.5098 26.4955 18.0531 22.3699 20.3645 16.7913C20.3645 16.7913 23.9632 15.7105 32.1902 20.9448C35.6947 20.0472 39.3091 19.5868 42.9409 19.5755C46.5961 19.5983 50.2486 20.0488 53.6915 20.9448C61.8701 15.7105 65.4662 16.7913 65.4662 16.7913C67.7749 22.3699 66.3182 26.493 65.8989 27.5105C68.6269 30.3453 70.2933 33.9572 70.2933 38.3866C70.2933 53.9403 60.2414 57.3699 50.684 58.3596C52.1784 59.5719 53.5787 62.0651 53.5787 65.8491C53.5787 71.2656 53.5249 75.6292 53.5249 76.9479C53.5249 78.0009 54.2775 79.2664 56.4921 78.8589C73.6932 73.5613 86 58.3747 86 40.4976C86 18.1404 66.7536 0 42.9973 0L43.0027 0.00253107Z" fill="black"/>
</svg>
