<svg width="103" height="77" viewBox="0 0 103 77" fill="none" xmlns="http://www.w3.org/2000/svg">
<path d="M96.0934 76.8393H6.49946C3.02563 76.8393 0.100586 74.0435 0.100586 70.5261V6.67405C0.100184 3.24675 2.93389 0.36084 6.49946 0.36084H96.0934C99.5672 0.36084 102.493 3.15665 102.493 6.67405V70.5261C102.493 74.0435 99.659 76.8393 96.0934 76.8393Z" fill="#E3E3E3"/>
<path opacity="0.1" d="M12.8989 76.8393L51.2049 46.4461L51.4793 44.8228L11.9848 16.7749L11.8931 75.4866L12.8989 76.8393Z" fill="#231F20"/>
<path d="M6.49938 76.8393C2.9338 76.8393 0.100098 74.0435 0.100098 70.5261V6.58353C0.100098 3.06654 2.9338 2.43506 6.49938 2.43506C10.0649 2.43506 12.8991 3.15664 12.8991 6.58353V76.8393H6.49938Z" fill="#D54B3D"/>
<path d="M6.49946 3.33683C11.0705 3.33683 11.985 4.68989 11.985 6.58353V75.9375H6.49946C3.48269 75.9375 1.01431 73.5025 1.01431 70.5261V6.58353C1.01431 4.59939 1.92843 3.33683 6.49946 3.33683ZM6.49946 2.43506C2.93389 2.43506 0.100586 3.15664 0.100586 6.58353V70.5265C0.100586 74.0439 2.93429 76.8397 6.49986 76.8397H12.8991V6.58353C12.8991 3.06654 10.065 2.43506 6.49946 2.43506Z" fill="#D72B27"/>
<path d="M96.0935 76.8393H89.6938V6.40334C89.6938 2.88594 92.528 2.43506 96.0935 2.43506C99.6591 2.43506 102.493 2.88594 102.493 6.40334V70.6166C102.493 74.0435 99.6591 76.8393 96.0935 76.8393Z" fill="#D54B3D"/>
<path d="M96.0935 3.33683C100.207 3.33683 101.579 4.14851 101.579 6.40334V70.6166C101.579 73.5926 99.1103 76.0276 96.0935 76.0276H90.608V6.40334C90.608 4.05841 91.9796 3.33683 96.0935 3.33683ZM96.0935 2.43506C92.528 2.43506 89.6938 2.88594 89.6938 6.40334V76.9298H96.0935C99.6591 76.9298 102.493 74.1336 102.493 70.6166V6.40334C102.493 2.88594 99.6591 2.43506 96.0935 2.43506Z" fill="#D72B27"/>
<path d="M68.6668 76.8393L0.635742 9.20633L4.21419 10.6419L51.5709 44.2818L102.493 7.44604V70.6166C102.493 74.0435 99.659 76.8393 96.0934 76.8393H68.6668Z" fill="url(#paint0_linear)"/>
<path d="M51.2051 46.4462L2.84257 11.8145C0.00845809 9.74023 -0.814335 5.77195 1.28831 2.97614C3.39177 0.18032 7.50533 -0.450762 10.4308 1.62348L51.2968 30.9343L92.4361 1.26229C95.2702 -0.811948 99.2928 -0.180469 101.395 2.70544C103.498 5.50126 102.858 9.46954 99.9325 11.5438L51.2047 46.4458L51.2051 46.4462Z" fill="#D54B3D"/>
<path d="M96.0934 0.901773C97.8303 0.901773 99.4759 1.71345 100.573 3.15621C102.31 5.59163 101.762 8.92843 99.3846 10.7324L51.2051 45.3641L3.39138 11.0932C0.922997 9.28922 0.282868 5.86192 2.01979 3.51739C3.02565 2.16434 4.76256 1.26296 6.59081 1.26296C7.77934 1.26296 8.96786 1.62335 9.88199 2.34493L50.6567 31.5652L51.2051 31.9264L51.7535 31.5652L92.8022 1.89404C93.8081 1.26296 94.9049 0.901773 96.0934 0.901773ZM96.0934 0C94.8135 0 93.4419 0.360789 92.3452 1.17246L51.2051 30.8437L10.339 1.53325C9.24266 0.721577 7.87147 0.360789 6.49988 0.360789C4.48857 0.360789 2.47725 1.26256 1.1974 2.97641C-0.813921 5.77182 0.00887175 9.7401 2.84298 11.8143L51.2055 46.5366L99.8416 11.544C102.676 9.46981 103.316 5.59163 101.305 2.70572C100.025 0.901773 98.1047 0 96.0934 0Z" fill="#D72B27"/>
<defs>
<linearGradient id="paint0_linear" x1="0.639816" y1="42.1413" x2="102.526" y2="42.1413" gradientUnits="userSpaceOnUse">
<stop stop-opacity="0.1"/>
<stop offset="1" stop-opacity="0.2"/>
</linearGradient>
</defs>
</svg>
