<svg width="80" height="77" viewBox="0 0 80 77" fill="none" xmlns="http://www.w3.org/2000/svg">
<path d="M40 6.93722C50.6803 6.93722 51.9453 6.97632 56.1631 7.1613C60.0631 7.33275 62.1812 7.95988 63.5909 8.48714C65.4578 9.18556 66.7903 10.0199 68.19 11.3671C69.59 12.7143 70.4566 13.9969 71.1822 15.7937C71.73 17.1505 72.3816 19.1892 72.5597 22.9427C72.7519 27.0026 72.7925 28.2202 72.7925 38.5C72.7925 48.7801 72.7519 49.9977 72.5597 54.0573C72.3816 57.8111 71.73 59.8495 71.1822 61.2063C70.4566 63.0031 69.5897 64.286 68.19 65.6332C66.7903 66.9804 65.4578 67.8147 63.5909 68.5129C62.1812 69.0401 60.0631 69.6676 56.1631 69.8387C51.9459 70.024 50.6809 70.0631 40 70.0631C29.3188 70.0631 28.0538 70.024 23.8366 69.8387C19.9366 69.6673 17.8187 69.0401 16.4091 68.5129C14.5422 67.8147 13.2094 66.9804 11.8097 65.6332C10.41 64.2857 9.54312 63.0031 8.81781 61.2063C8.27 59.8498 7.61812 57.8111 7.44031 54.0573C7.24781 49.9977 7.20719 48.7801 7.20719 38.5C7.20719 28.2202 7.24781 27.0026 7.44031 22.943C7.61844 19.1892 8.27 17.1505 8.81781 15.7937C9.54312 13.9969 10.41 12.7143 11.8097 11.3671C13.2097 10.0196 14.5422 9.18556 16.4091 8.48714C17.8184 7.95988 19.9366 7.33275 23.8366 7.1613C28.0544 6.97632 29.3194 6.93722 40 6.93722ZM40 0C29.1366 0 27.7744 0.0442148 23.5081 0.231602C19.2503 0.418687 16.3425 1.06958 13.7984 2.02125C11.1678 3.00511 8.93719 4.32162 6.71344 6.46198C4.48969 8.60234 3.12219 10.7493 2.1 13.281C1.11094 15.73 0.435 18.5287 0.240625 22.6266C0.0459375 26.7328 0 28.0439 0 38.5C0 48.9561 0.0459375 50.2672 0.240625 54.3734C0.435 58.4716 1.11094 61.2703 2.1 63.719C3.12187 66.2507 4.48969 68.398 6.71344 70.5383C8.93719 72.6787 11.1678 73.9949 13.7984 74.9788C16.3428 75.9307 19.2503 76.5813 23.5078 76.7684C27.7744 76.9558 29.1366 77 40 77C50.8634 77 52.2256 76.9558 56.4919 76.7684C60.7494 76.5813 63.6572 75.9307 66.2012 74.9788C68.8319 73.9952 71.0625 72.6787 73.2863 70.5383C75.51 68.398 76.8778 66.251 77.9 63.719C78.8887 61.27 79.565 58.4716 79.7594 54.3737C79.9541 50.2672 80 48.9561 80 38.5C80 28.0439 79.9541 26.7328 79.7594 22.6266C79.565 18.5287 78.8887 15.73 77.9 13.2813C76.8778 10.7493 75.51 8.60234 73.2863 6.46198C71.0625 4.32162 68.8319 3.0048 66.2016 2.02125C63.6572 1.06958 60.7494 0.418687 56.4919 0.231602C52.2256 0.0442148 50.8634 0 40 0ZM40 18.7296C28.6556 18.7296 19.4594 27.5816 19.4594 38.5C19.4594 49.419 28.6556 58.2704 40 58.2704C51.3441 58.2704 60.5406 49.419 60.5406 38.5C60.5406 27.5813 51.3441 18.7296 40 18.7296ZM40 51.3334C32.6362 51.3334 26.6666 45.5876 26.6666 38.5C26.6666 31.4124 32.6362 25.6666 40 25.6666C47.3638 25.6666 53.3334 31.4124 53.3334 38.5C53.3334 45.5876 47.3638 51.3334 40 51.3334ZM66.1519 17.9485C66.1519 20.5003 64.0031 22.5685 61.3519 22.5685C58.7009 22.5685 56.5519 20.5003 56.5519 17.9485C56.5519 15.397 58.7009 13.3285 61.3519 13.3285C64.0031 13.3285 66.1519 15.397 66.1519 17.9485Z" fill="#0A0A08"/>
</svg>
