<svg width="74" height="78" viewBox="0 0 74 78" fill="none" xmlns="http://www.w3.org/2000/svg">
<path d="M68.5221 0.908203H5.46189C2.44826 0.908203 0 3.39632 0 6.46512V72.4371C0 75.5077 2.44826 78 5.46189 78H68.5216C71.5403 78 74 75.5077 74 72.4371V6.46452C74 3.39632 71.5403 0.908203 68.5221 0.908203Z" fill="#006087"/>
<path d="M16.4609 11.5215C19.9708 11.5215 22.8217 14.4921 22.8217 18.1493C22.8217 21.8089 19.9708 24.7807 16.4609 24.7807C12.9441 24.7807 10.0967 21.8089 10.0967 18.1493C10.0967 14.4921 12.9441 11.5215 16.4609 11.5215ZM10.971 29.8099H21.9468V66.6004H10.971V29.8099Z" fill="white"/>
<path d="M28.8306 29.8099H39.3592V34.8361H39.5054C40.9702 31.9446 44.5504 28.8943 49.89 28.8943C61.004 28.8943 63.0559 36.5139 63.0559 46.42V66.6004H52.0882V48.7094C52.0882 44.4406 52.0128 38.9533 46.3847 38.9533C40.6727 38.9533 39.7983 43.6011 39.7983 48.4V66.5998H28.8306V29.8105" fill="white"/>
</svg>
